<svg xmlns="http://www.w3.org/2000/svg" viewBox="0 0 500 500">
  <defs>
    <linearGradient id="a" x2="1" y1=".5" y2=".5" gradientUnits="objectBoundingBox">
      <stop offset="0" stop-color="#5129f5"/>
      <stop offset="1" stop-color="#e14647"/>
    </linearGradient>
  </defs>
  <circle cx="250" cy="250" r="250" fill="url(#a)"/>
  <path fill="#fff" d="M173.59 119.01v22.27q-13.9 0-22.82 4.19t-7.69 15.66l5 49.55q2.02 19.17-6.62 28.14t-24.98 11.68q17.01 2.83 25.32 11.4t6.28 28.43l-5 49.54q-1.22 11.61 7.7 15.73t22.81 4.12v22.27q-18.77 0-32.6-4.05t-20.79-13.9q-6.95-9.85-5.06-27l5-46.57q1.48-14.31-7.3-21.06t-32.12-6.75v-24.3q23.35 0 32.13-6.62t7.29-21.06l-5-46.57q-1.9-17.28 5.06-27.14t20.8-13.9q13.83-4.06 32.59-4.06zm127.98 105.43l-6.75 53.46h16.88v28.08h-20.66L285.91 345h-35.24l5.13-39.02h-25.65L225.02 345H189.8l4.86-39.02h-16.07V277.9h19.85l7.02-53.46h-16.88v-28.21h20.66l4.86-38.34h35.51l-5.27 38.34h25.78l5.13-38.34h35.24l-5.13 38.34h16.34v28.21zm-67.9 53.46h25.65l7.02-53.46h-25.65zm92.74-158.89q18.76 0 32.6 4.05t20.79 13.9q6.95 9.85 5.06 27l-5 46.71q-1.48 14.44 7.97 21.06t31.46 6.61v24.3q-21.87 0-31.39 6.75t-8.03 21.07l5 46.44q1.89 17.28-5.07 27.14t-20.79 13.9q-13.83 4.04-32.6 4.04v-22.27q13.9 0 22.82-4.11t7.69-15.73l-5-49.55q-2.02-19.84 6.69-28.41t26.8-11.27q-18.23-2.84-26.87-11.82t-6.62-28.14l5-49.55q1.22-11.47-7.69-15.66t-22.82-4.19z"/>
</svg>
